/* XPM */
static const char * filemodified_xpm[] = {
"16 12 4 1",
" 	c None",
".	c #831F1F",
"+	c #C00000",
"@	c #D16161",
"  ...........+  ",
"  .++++++++++@  ",
"  .++++++++++@  ",
"  .++++++++++@  ",
"  .++++++++++@  ",
"  .++++++++++@  ",
"  .++++++++++@  ",
"  .++++++++++@  ",
"  .++++++++++@  ",
"  .++++++++++@  ",
"  .++++++++++@  ",
"  +@@@@@@@@@@@  "};
