/* XPM */
static const char * Quincy32_xpm[] = {
"32 32 21 1",
" 	c None",
".	c #CC6600",
"+	c #777777",
"@	c #F1F1F1",
"#	c #B2B2B2",
"$	c #FFFFFF",
"%	c #996600",
"&	c #FF6633",
"*	c #DDDDDD",
"=	c #CC9966",
"-	c #FFCC99",
";	c #CC0000",
">	c #FFFF00",
",	c #CCCCCC",
"'	c #9999FF",
")	c #FFFFCC",
"!	c #868686",
"~	c #C0C0C0",
"{	c #FF00CC",
"]	c #FF66FF",
"^	c #FF99FF",
"              .++++++           ",
"             +.@@#@@$++         ",
"          % %.&.%#%@*@#+        ",
"        %%=%=-=&;%=%%#@+        ",
"        %==&->-&;#==%#$*+       ",
"         %-==-=&&==%#@*#+       ",
"         %->=&=;=-=%#*#@+       ",
"         %-->=>=>-=%@#,+        ",
"          %->>>>-=%@#,$+        ",
"          %=>'>-'=%#,@+         ",
"         +=-)'--===*,$+         ",
"        +@!!>>>-=!!~$+          ",
"        +@$$!!!!!*,~+           ",
"         ++$$@@@@@++            ",
"           +++++++              ",
"           {]]{{{;              ",
"           {^]^]{;              ",
"           {^^^]];              ",
"          {^^-^^]{;             ",
"          {^^$^^]];             ",
"          {^^$^^^];             ",
"         {^^$$^^]]{;            ",
"         {^^$$^^^]];            ",
"        {^--$$^^^]]{;           ",
"       {^^^^^^]]]{]]{;          ",
"       {^^$$$$^^^^]]{;          ",
"      {^^^$$$$^^^^]]]{{         ",
"      {]^@$$$^^^^]^]{{;         ",
"      {^]^$$$@^^^^{{{{;         ",
"       {-@^^^^]]]]]]{;          ",
"        {{^$$^-^^^{{{           ",
"          {{{{{{{{{             "};
