/* XPM */
static const char * Quincy48_xpm[] = {
"48 48 207 2",
"  	c None",
". 	c #C86800",
"+ 	c #A87840",
"@ 	c #808080",
"# 	c #888888",
"$ 	c #987048",
"% 	c #C06808",
"& 	c #C89860",
"* 	c #B0B0B8",
"= 	c #A0A0A0",
"- 	c #C0C0C8",
"; 	c #C8C8C8",
"> 	c #D0D0C8",
", 	c #A8A8A8",
"' 	c #707870",
") 	c #807058",
"! 	c #D06818",
"~ 	c #D89858",
"{ 	c #D8C8A8",
"] 	c #C8C0B0",
"^ 	c #B8B8B0",
"/ 	c #D8D8D8",
"( 	c #F8F8F8",
"_ 	c #FFFFFF",
": 	c #D0D0D8",
"< 	c #989898",
"[ 	c #986800",
"} 	c #986808",
"| 	c #B06810",
"1 	c #F85028",
"2 	c #E08020",
"3 	c #C87010",
"4 	c #A86810",
"5 	c #A89060",
"6 	c #A8A090",
"7 	c #A07830",
"8 	c #E8E8E8",
"9 	c #E0E0E0",
"0 	c #C0C0B8",
"a 	c #787878",
"b 	c #A06808",
"c 	c #B08038",
"d 	c #A07018",
"e 	c #B88030",
"f 	c #E0A868",
"g 	c #E08858",
"h 	c #E08040",
"i 	c #E05818",
"j 	c #C02800",
"k 	c #A84818",
"l 	c #A88038",
"m 	c #B88848",
"n 	c #B89050",
"o 	c #B0B0A8",
"p 	c #909898",
"q 	c #C07830",
"r 	c #B07820",
"s 	c #D8A068",
"t 	c #F0C088",
"u 	c #FFC060",
"v 	c #E0B078",
"w 	c #F08858",
"x 	c #D80808",
"y 	c #B03018",
"z 	c #C08848",
"A 	c #986000",
"B 	c #B8B8B8",
"C 	c #D09868",
"D 	c #E07848",
"E 	c #F87848",
"F 	c #FFE850",
"G 	c #E8E818",
"H 	c #FF8060",
"I 	c #D81008",
"J 	c #D06838",
"K 	c #B8A898",
"L 	c #C8A070",
"M 	c #A08850",
"N 	c #F8F0F8",
"O 	c #B88840",
"P 	c #D8A070",
"Q 	c #E08860",
"R 	c #E0A878",
"S 	c #D87050",
"T 	c #B8A880",
"U 	c #C89870",
"V 	c #E8B880",
"W 	c #D0A858",
"X 	c #D86840",
"Y 	c #B07828",
"Z 	c #987018",
"` 	c #D02018",
" .	c #C8C8D0",
"..	c #E0E080",
"+.	c #E8D828",
"@.	c #E09048",
"#.	c #E0C028",
"$.	c #D89030",
"%.	c #D8A878",
"&.	c #A87818",
"*.	c #F8F808",
"=.	c #E0C038",
"-.	c #E0C048",
";.	c #C89058",
">.	c #B89850",
",.	c #D8D0C0",
"'.	c #D8A060",
").	c #FFFF00",
"!.	c #C89858",
"~.	c #A87018",
"{.	c #C0A068",
"].	c #C8D0D0",
"^.	c #D0B8C8",
"/.	c #C8A0A8",
"(.	c #B09058",
"_.	c #906818",
":.	c #A8A8E0",
"<.	c #B898A8",
"[.	c #787068",
"}.	c #887868",
"|.	c #FFE0C0",
"1.	c #A8A0E8",
"2.	c #D0B098",
"3.	c #98A0A0",
"4.	c #B8B0B0",
"5.	c #A89080",
"6.	c #C8B880",
"7.	c #B89068",
"8.	c #A08878",
"9.	c #B8A8A0",
"0.	c #9898A0",
"a.	c #A8B080",
"b.	c #D8D828",
"c.	c #E0B890",
"d.	c #C09870",
"e.	c #989870",
"f.	c #989080",
"g.	c #989088",
"h.	c #908880",
"i.	c #B838A0",
"j.	c #B840A0",
"k.	c #B860B0",
"l.	c #B870B8",
"m.	c #B83098",
"n.	c #B830A0",
"o.	c #A83868",
"p.	c #A03838",
"q.	c #FF00C8",
"r.	c #FF18D8",
"s.	c #FF60F8",
"t.	c #FF68FF",
"u.	c #FF58F8",
"v.	c #FF20D8",
"w.	c #FF10D8",
"x.	c #E80060",
"y.	c #C80000",
"z.	c #FF78F8",
"A.	c #FF80FF",
"B.	c #FF68F0",
"C.	c #FF48F0",
"D.	c #FF08D0",
"E.	c #FF80F8",
"F.	c #FF88FF",
"G.	c #FF98FF",
"H.	c #FF60FF",
"I.	c #FF40E8",
"J.	c #FF38E0",
"K.	c #FF88F8",
"L.	c #FFA0F8",
"M.	c #FF40A0",
"N.	c #D00018",
"O.	c #FF40E0",
"P.	c #FFA0E0",
"Q.	c #FF28D8",
"R.	c #F00098",
"S.	c #FF50E8",
"T.	c #FFA0FF",
"U.	c #F8C8F8",
"V.	c #FF50F8",
"W.	c #F828C8",
"X.	c #D80830",
"Y.	c #FFD8FF",
"Z.	c #FFE8FF",
"`.	c #FFA8FF",
" +	c #FF78FF",
".+	c #F858D8",
"++	c #D81030",
"@+	c #FF90F8",
"#+	c #FFC8FF",
"$+	c #D80030",
"%+	c #FFF8FF",
"&+	c #FF20A0",
"*+	c #E00048",
"=+	c #FF60E0",
"-+	c #F800B0",
";+	c #D00008",
">+	c #FF58F0",
",+	c #FFA0E8",
"'+	c #FFE0FF",
")+	c #D80038",
"!+	c #C80008",
"~+	c #FF20E0",
"{+	c #FF08C8",
"]+	c #D80028",
"^+	c #FF58E8",
"/+	c #FF60A0",
"(+	c #FF60C0",
"                                          . +     @ @ @ @ @ # @                                 ",
"                                        $ % & @ @ * = - ; ; > , ' '                             ",
"                                      ) $ ! ~ { { ] ^ ; / ( _ : < # @                           ",
"                              [ [   } | ! 1 2 3 4 5 6 7 7 8 9 9 9 0 < a                         ",
"                            b c d } e ~ f g h i j k l c m n ; ; ; / o p a                       ",
"                        [ d c & q r s t u v w 1 x y l & z d A + B 8 : p a                       ",
"                        [ c & C D E t F G t H 1 I J K L & z d M B 8 N ; # '                     ",
"                        [ d O v P Q R u F v w 1 1 S T U z l 5 ; / 8 9 B # '                     ",
"                          A r t V W & R V C X 1 E g P C Y Z 6 : 8 / ; B # '                     ",
"                          A r t F G W D E ~ J ` S V t P e d 6  ./ 0 ; / p '                     ",
"                            r t ..F +.@.@.#.$.J #.F t %.Y d ; : - 0 B = @                       ",
"                            &.f t *.*.+.=.*.+.-.G F V ;.O >.,.: B / o = @                       ",
"                              d '.t *.*.*.).*.G *.-.!.~.{./ - 0 ].8 - a                         ",
"                              A O -.*.*.*.*.*.*.^./.;.b (. .- ]./ 0 p a                         ",
"                            _.d z -.F -.:.*.*.{ :.<.;.r 5 B ; 9 8 p '                           ",
"                          [.}.;.v t |.-.1.*.-.-.%.U & ;.2./ ].8 8 p '                           ",
"                        a 3.4.5.5.6.F ....F -.-.s 7.8.8.9.: 8 / , @                             ",
"                        a - 9 , 0.a.b.G G G -.c.d.5.< p , ; 9 o a                               ",
"                        a B N 8 8 / 6 e.e.e.f.g.h.o ].; 8 B < @                                 ",
"                          < * B 8 ( : - - - - - - / 9 ; ; p a                                   ",
"                            ' a * 8 8 9 / / / / / 9 ; # ' a                                     ",
"                                @ # # # # # # # # # #                                           ",
"                                i.j.k.l.k.i.m.n.i.o.p.                                          ",
"                                q.r.s.t.u.v.r.w.q.x.y.                                          ",
"                                q.v.z.A.t.z.B.C.D.x.y.                                          ",
"                                q.r.E.F.A.G.A.H.I.x.y.                                          ",
"                                D.J.K.L.L.G.A.t.t.M.N.                                          ",
"                              q.O.E.G.P.|.L.G.F.t.Q.R.N.                                        ",
"                              q.S.T.G.U.|.L.G.G.t.V.W.X.                                        ",
"                              q.S.G.G.Y.Z.`.G.G. +t..+++y.                                      ",
"                              q.S.G.G.Y.Z.`.G.G.@+A..+++y.                                      ",
"                            D.J.B.T.#+Z.Z.`.G.G.F. +S.x.$+y.                                    ",
"                          q.v.E.G.`.Z._ Z.`.G.G. +t.u.v.x.y.                                    ",
"                          q.v.K.G.`.%+_ Z.`.G.G.F. +H.V.&+*+N.                                  ",
"                        q.v.=+P.P.U.%+_ Z.`.G.G.T.A.t.t.M.-+;+                                  ",
"                      q.w.>+,+|.t |.N %+'+T.F.G.G. +u.H.I.I.)+!+                                ",
"                    q.r.B.K.L.,+P.,+`.`.T. +t. + +I.~+u.H.I.-+*+                                ",
"                    q.v.K.T.T.#+#+#+#+#+`.A. + + +>+O.u.t.u.w.x.y.                              ",
"                    {+z.K.G.`.Z._ _ _ _ Z.`.G.G.G.G.F.t.t.u.~+x.N.                              ",
"                  q.O.z.G.G.`.%+_ _ _ _ Z.`.G.G.G.T.G.t.H.H.V.W.R.R.                            ",
"                  q.S.@+G.`.U.%+_ _ _ Z.#+T.G.G.G.F.A.A. +H.C.~+q.R.                            ",
"                  q.I. +@+U.N %+_ _ _ #+T.G.G.G.G.A.t.E.z.V.r.D.-+$+                            ",
"                  q.S.F. +@+U.%+_ _ _ N U.T.G.G.G.G.z.O.v.r.q.D.-+]+                            ",
"                  q.J.B.P.,+U.Y.Y.Y.Y.Y.U.@+A.F.F.F.z.J.~+v.D.-+N.N.                            ",
"                    D.W.c.|.U.T.T.T.T.T.G.z.t.t.t.t.t.s.s.V.w.x.N.                              ",
"                      {+W..+=+@+#+Z.Z.#+L.P.P.F.F.@+z.J.v.v.D.-+                                ",
"                        q.q.w.^+@+,+,+K.=+/+(+B.B.B.^+D.q.q.q.D.                                ",
"                              D.D.D.D.D.D.{+{+D.D.D.D.q.q.                                      "};
