/* XPM */
static const char * Quincy16_xpm[] = {
"16 16 16 1",
" 	c None",
".	c #777777",
"+	c #996600",
"@	c #CC6600",
"#	c #FFCC33",
"$	c #FFFF66",
"%	c #CC0000",
"&	c #B2B2B2",
"*	c #9999FF",
"=	c #FFCC99",
"-	c #868686",
";	c #FF00CC",
">	c #FF66FF",
",	c #FF99FF",
"'	c #FFFFFF",
")	c #F1F1F1",
"      ...       ",
"    +++@#+.     ",
"    +##$##+     ",
"    +#%$%#+     ",
"     +#$$+      ",
"    .&*=-$.     ",
"    ..&&&..     ",
"     ....       ",
"     ;>>%       ",
"     ;,,;%      ",
"    ;;,,>%      ",
"    ;,',>%%     ",
"   ;,,,>;>%     ",
"   ;)',,>>;%    ",
"   ;),)>>;%%    ",
"    ;;;;;;;     "};
