/* XPM */
static const char * tb_bracematch_xpm[] = {
"16 16 257 2",
"  	c None",
". 	c #000000",
"+ 	c #800000",
"@ 	c #008000",
"# 	c #808000",
"$ 	c #000080",
"% 	c #800080",
"& 	c #008080",
"* 	c #C0C0C0",
"= 	c #C0DCC0",
"- 	c #A6CAF0",
"; 	c #F0F8FC",
"> 	c #080000",
", 	c #0C0808",
"' 	c #100000",
") 	c #14100C",
"! 	c #141414",
"~ 	c #280C00",
"{ 	c #383838",
"] 	c #04185C",
"^ 	c #344850",
"/ 	c #480C08",
"( 	c #482004",
"_ 	c #5C383C",
": 	c #642C30",
"< 	c #7C540C",
"[ 	c #505050",
"} 	c #6C4C48",
"| 	c #646460",
"1 	c #707070",
"2 	c #DCE8FC",
"3 	c #0C3890",
"4 	c #343494",
"5 	c #202CB8",
"6 	c #2C38BC",
"7 	c #0000DC",
"8 	c #0C54B0",
"9 	c #0048DC",
"0 	c #3448D4",
"a 	c #2860D8",
"b 	c #5434B4",
"c 	c #603CC0",
"d 	c #606490",
"e 	c #7078AC",
"f 	c #4C58D0",
"g 	c #4040E4",
"h 	c #5468E0",
"i 	c #684CC8",
"j 	c #7454CC",
"k 	c #7454D4",
"l 	c #7458D4",
"m 	c #7854D4",
"n 	c #785CD4",
"o 	c #6870D0",
"p 	c #7070EC",
"q 	c #288818",
"r 	c #4CB428",
"s 	c #6CA44C",
"t 	c #64C03C",
"u 	c #74CC50",
"v 	c #18A0FC",
"w 	c #2084E8",
"x 	c #2C9CFC",
"y 	c #28A8FC",
"z 	c #7C849C",
"A 	c #6C8CB8",
"B 	c #4080C4",
"C 	c #4490EC",
"D 	c #58A8D8",
"E 	c #40BCFC",
"F 	c #5CB8FC",
"G 	c #6090EC",
"H 	c #7CA4E8",
"I 	c #70BCFC",
"J 	c #5CC8FC",
"K 	c #74C8FC",
"L 	c #901420",
"M 	c #803400",
"N 	c #9C2434",
"O 	c #A81824",
"P 	c #B42434",
"Q 	c #A0384C",
"R 	c #A86C18",
"S 	c #906064",
"T 	c #C00000",
"U 	c #D40000",
"V 	c #C01828",
"W 	c #C81C2C",
"X 	c #C82834",
"Y 	c #F00000",
"Z 	c #F8383C",
"` 	c #DC441C",
" .	c #FC5000",
"..	c #FC5C00",
"+.	c #E44820",
"@.	c #E84C20",
"#.	c #F04C24",
"$.	c #F45024",
"%.	c #FC6C00",
"&.	c #C4404C",
"*.	c #D85860",
"=.	c #8068D4",
"-.	c #8C74D8",
";.	c #BCBC04",
">.	c #84947C",
",.	c #988478",
"'.	c #84AC78",
").	c #A48040",
"!.	c #88E068",
"~.	c #C09404",
"{.	c #DC881C",
"].	c #DCAC08",
"^.	c #C8AC28",
"/.	c #F09408",
"(.	c #E8982C",
"_.	c #F0BC08",
":.	c #F8A834",
"<.	c #C89458",
"[.	c #D0AC74",
"}.	c #E88070",
"|.	c #FCB450",
"1.	c #E0B460",
"2.	c #ECBC7C",
"3.	c #FCBC68",
"4.	c #ECD828",
"5.	c #FCD858",
"6.	c #FCC478",
"7.	c #F0E454",
"8.	c #FCE47C",
"9.	c #B0D8FC",
"0.	c #848488",
"a.	c #8C8C8C",
"b.	c #8C8894",
"c.	c #9C948C",
"d.	c #949494",
"e.	c #98989C",
"f.	c #848CBC",
"g.	c #94A0B4",
"h.	c #AC9C94",
"i.	c #A0A0A0",
"j.	c #A8A8A8",
"k.	c #B0B0B0",
"l.	c #B4B4B8",
"m.	c #9894D0",
"n.	c #84ACD0",
"o.	c #84BCF4",
"p.	c #A89CCC",
"q.	c #A490E0",
"r.	c #A4A4C4",
"s.	c #ACA0DC",
"t.	c #A8B4C8",
"u.	c #A4B8D4",
"v.	c #B8ACC8",
"w.	c #BCBCC0",
"x.	c #BCBCD8",
"y.	c #B4A4E0",
"z.	c #BCB4E8",
"A.	c #A8D894",
"B.	c #B8ECA4",
"C.	c #80C4E4",
"D.	c #84C8FC",
"E.	c #80D4FC",
"F.	c #98C0EC",
"G.	c #9CCCFC",
"H.	c #94D4FC",
"I.	c #BCC4C8",
"J.	c #B8C8D4",
"K.	c #A8C8E4",
"L.	c #A0D0FC",
"M.	c #A8D4FC",
"N.	c #B4CCF4",
"O.	c #B4DCFC",
"P.	c #BCD4F8",
"Q.	c #BCDCFC",
"R.	c #B0F0FC",
"S.	c #C4B090",
"T.	c #C0B4A4",
"U.	c #E898A0",
"V.	c #ECB4BC",
"W.	c #FCBCAC",
"X.	c #C8BCE8",
"Y.	c #DCC098",
"Z.	c #DCDC84",
"`.	c #C8C0BC",
" +	c #D4C4AC",
".+	c #D0C8BC",
"++	c #E8D49C",
"@+	c #FCCC84",
"#+	c #FCC89C",
"$+	c #F0D48C",
"%+	c #FCD888",
"&+	c #FCD498",
"*+	c #E0CCAC",
"=+	c #ECD0AC",
"-+	c #FCD8A8",
";+	c #FCE890",
">+	c #FCE0B4",
",+	c #FCF0AC",
"'+	c #B8D8F8",
")+	c #C0C0C4",
"!+	c #C4C4C4",
"~+	c #C4CCCC",
"{+	c #C8C4C0",
"]+	c #CCC8C4",
"^+	c #CCCCCC",
"/+	c #C8CCDC",
"(+	c #C4D8DC",
"_+	c #DCCCC4",
":+	c #DCD4CC",
"<+	c #D4D4D4",
"[+	c #DCDCD8",
"}+	c #C0C4E4",
"|+	c #CCC8EC",
"1+	c #C4C4F8",
"2+	c #CCD8E4",
"3+	c #C4D8F4",
"4+	c #D4CCE0",
"5+	c #D4CCE8",
"6+	c #D8D8E8",
"7+	c #D4D4F0",
"8+	c #DCE8C4",
"9+	c #C0E0FC",
"0+	c #C4ECFC",
"a+	c #CCE4FC",
"b+	c #D0E8FC",
"c+	c #DCE4E8",
"d+	c #D4E8FC",
"e+	c #D8ECFC",
"f+	c #FCC8C0",
"g+	c #FCD8CC",
"h+	c #FCECC8",
"i+	c #FCE8D8",
"j+	c #FCF4DC",
"k+	c #E4E0E4",
"l+	c #E8E8EC",
"m+	c #E0E0F8",
"n+	c #E4ECF8",
"o+	c #ECE8F0",
"p+	c #E0F0FC",
"q+	c #E0FCFC",
"r+	c #E8F4FC",
"s+	c #FCECEC",
"t+	c #F0ECF4",
"u+	c #F0F0F4",
"v+	c #F4FCFC",
"w+	c #FCF8F0",
"x+	c #FCFCFC",
"y+	c #FFFBF0",
"z+	c #A0A0A4",
"A+	c #808080",
"B+	c #FF0000",
"C+	c #00FF00",
"D+	c #FFFF00",
"E+	c #0000FF",
"F+	c #FF00FF",
"G+	c #00FFFF",
"H+	c #FFFFFF",
"        V V V     V V V         ",
"        V A+A+A+      V A+      ",
"      V V A+          V V       ",
"      V V A+          V V A+    ",
"      V V A+          V V A+    ",
"      V V A+          V V A+    ",
"      V A+              V A+    ",
"  V V A+                A+V V   ",
"      V                 V   A+A+",
"      V V             V V A+    ",
"      V V A+          V V A+    ",
"      V V A+          V V A+    ",
"      V V A+          V V A+    ",
"        V A+          V A+A+    ",
"        V V V     V V V A+      ",
"          A+A+A+    A+A+A+      "};
