/* XPM */
static const char * tb_contexthelp_xpm[] = {
"16 16 15 1",
" 	c None",
".	c #414180",
"+	c #497EB5",
"@	c #457BB4",
"#	c #FFFFFF",
"$	c #4179B2",
"%	c #3B74B1",
"&	c #3570B0",
"*	c #2F6CAE",
"=	c #2967AC",
"-	c #2665A8",
";	c #2561A0",
">	c #245E9B",
",	c #235C98",
"'	c #225A95",
"  ............  ",
" .++++++++++++. ",
".@@@@@####@@@@@.",
".$$$$##$$##$$$$.",
".%%%%##%%##%%%%.",
".&&&&&&&##&&&&&.",
".******##******.",
".======##======.",
".--------------.",
".;;;;;;##;;;;;;.",
".>>>>>>##>>>>>>.",
" .,,,,,,,,,,,,. ",
"  .''.........  ",
"  .'.           ",
"  ..            ",
"  .             "};
