/* XPM */
static const char * tb_close_xpm[] = {
"16 16 43 1",
" 	c None",
".	c #C85C5C",
"+	c #C85B5B",
"@	c #C75757",
"#	c #C65555",
"$	c #C65454",
"%	c #C45050",
"&	c #C44F4F",
"*	c #C24B4B",
"=	c #C14848",
"-	c #C14646",
";	c #BF4141",
">	c #E4B0B0",
",	c #FEFDFD",
"'	c #DFA3A3",
")	c #BD3F3F",
"!	c #C24949",
"~	c #C04444",
"{	c #BF4040",
"]	c #BE3F3F",
"^	c #B73D3D",
"/	c #BB3E3E",
"(	c #B33B3B",
"_	c #B53C3C",
":	c #B03B3B",
"<	c #B23B3B",
"[	c #AC3939",
"}	c #AF3A3A",
"|	c #AB3939",
"1	c #A63737",
"2	c #A73737",
"3	c #A13535",
"4	c #A53737",
"5	c #9F3535",
"6	c #B93D3D",
"7	c #A93838",
"8	c #A03535",
"9	c #9C3333",
"0	c #9D3434",
"a	c #D9A1A1",
"b	c #CD9D9D",
"c	c #973232",
"d	c #9A3333",
"                ",
"  .++@#$%&*=-;  ",
" .>,,,,,,,,,,') ",
" +,##%&*!-~{],^ ",
" @,$,,*=-;,,/,( ",
" #,%,,,-;,,,_,: ",
" %,*!,,,,,,(<,[ ",
" &,=-;,,,,(:},| ",
" !,-;{,,,,:}|,1 ",
" -,{],,,,,,|2,3 ",
" ;,],,,:},,,4,5 ",
" {,6,,:}|7,,8,9 ",
" /,(<:[|21380,9 ",
" ^a,,,,,,,,,,bc ",
"  :}|7148599dc  ",
"                "};
