/* XPM */
static const char * tb_columnfill_xpm[] = {
"16 16 62 1",
" 	c None",
".	c #E8F3FB",
"+	c #E0F0FC",
"@	c #D3E9FC",
"#	c #CFE7FC",
"$	c #DFEEFB",
"%	c #6D767D",
"&	c #6F777E",
"*	c #6F787E",
"=	c #DFF0FC",
"-	c #D8ECFC",
";	c #6FC1FB",
">	c #6FC5FB",
",	c #5C42BC",
"'	c #2E215E",
")	c #2E21AB",
"!	c #CAE4FC",
"~	c #BFE0FC",
"{	c #D8EAF9",
"]	c #6A747E",
"^	c #6CB5FB",
"/	c #D4E8FC",
"(	c #D2E8FC",
"_	c #D0E7FC",
":	c #CEE6FC",
"<	c #CBE4FC",
"[	c #C6E2FC",
"}	c #6B757E",
"|	c #6AAAFB",
"1	c #68A2FB",
"2	c #66727E",
"3	c #CDE4FC",
"4	c #CCE4FC",
"5	c #C8E3FC",
"6	c #BCDCFC",
"7	c #67727E",
"8	c #6697FB",
"9	c #C0E0FC",
"0	c #BEDEFC",
"a	c #BCDDFC",
"b	c #B7DCFC",
"c	c #65727E",
"d	c #6597FB",
"e	c #6087FB",
"f	c #60707E",
"g	c #BBDCFC",
"h	c #B8DCFC",
"i	c #B5DBFC",
"j	c #ADD7FC",
"k	c #B0D8FC",
"l	c #5E78FB",
"m	c #5D78FB",
"n	c #5C78FB",
"o	c #5B6E7E",
"p	c #B4DBFC",
"q	c #B2DAFC",
"r	c #B0D9FC",
"s	c #A8D4FC",
"t	c #5E6E7E",
"u	c #5A6E7E",
"v	c #586C7E",
"w	c #B4DCFC",
" .........+@@#  ",
" $$$%&&**=---#  ",
" $$$%;;>*=---#  ",
" $,,')))',,,!~  ",
" {--]^^^]/(_:!  ",
" -,,')))',,<<[  ",
" ---}||1234!5[  ",
" -,,')))',,,,6  ",
" ///788824990a  ",
" 4,,')))'4bbbb  ",
" 444cddef96ghi  ",
" 4,,')))',,,jk  ",
" 499flmnopqrkj  ",
" 9,,')))',ssss  ",
" 966tuuuvkksss  ",
" 6wwwkkkssssss  "};
