/* XPM */
static const char * tb_compile_xpm[] = {
"16 16 27 1",
" 	c None",
".	c #9A2B00",
"+	c #B83B00",
"@	c #AE3E00",
"#	c #93621A",
"$	c #CA5900",
"%	c #A96C04",
"&	c #81715A",
"*	c #D46F00",
"=	c #BF7A28",
"-	c #D67A10",
";	c #AB834C",
">	c #A18B69",
",	c #D78625",
"'	c #98989C",
")	c #B3976A",
"!	c #DB9734",
"~	c #C69D6C",
"{	c #DDA451",
"]	c #DEAB69",
"^	c #E0B87A",
"/	c #E5C8B2",
"(	c #E4CB98",
"_	c #E7D2D2",
":	c #E5DBB8",
"<	c #E9E4D7",
"[	c #EBEBEB",
"     **  @-)    ",
"    -.,,*@!!{   ",
"    *${{,!{{=   ",
"  @$@!]{{]{]!)  ",
" #.](^{]{!{{!,,]",
" =@^(^]]!,*-{]{!",
"  $$/(^{^ ^@!{,~",
" >@*::/{   *-{!'",
" @*(<::^  (@,{!)",
" .-[<<<:{!$$]{{,",
" %$^/<<<:{!]{{{!",
" ';=$/<<_(^]!!='",
"   &.(<:/(]{!   ",
"   '+]</,,]{{   ",
"    =*!{'$-!'   ",
"         -!     "};
