/* XPM */
static const char * tb_cut_xpm[] = {
"16 16 18 1",
" 	c None",
".	c #8C8C8C",
"+	c #A8A8A8",
"@	c #646460",
"#	c #505050",
"$	c #808080",
"%	c #383838",
"&	c #707070",
"*	c #A0A0A0",
"=	c #4040E4",
"-	c #0000DC",
";	c #C0C0C0",
">	c #4C58D0",
",	c #9894D0",
"'	c #949494",
")	c #7070EC",
"!	c #BCB4E8",
"~	c #ACA0DC",
"                ",
"  .+            ",
"   @            ",
"   #$           ",
".  $#           ",
"$@#.#           ",
" +.##%%&*  =-=  ",
"     %;*%%=>,>= ",
"     '&   -,  - ",
"      %   => )= ",
"      =-=  =-=  ",
"     =)!)=      ",
"     -~  -      ",
"     =) )=      ",
"      =-=!      ",
"                "};
