/* XPM */
static const char * tb_copy_xpm[] = {
"16 16 21 1",
" 	c None",
".	c #84C8FC",
"+	c #74C8FC",
"@	c #94D4FC",
"#	c #B4DCFC",
"$	c #E8F4FC",
"%	c #E0F0FC",
"&	c #D8ECFC",
"*	c #70BCFC",
"=	c #D0E8FC",
"-	c #A8D4FC",
";	c #5CB8FC",
">	c #84BCF4",
",	c #D4E8FC",
"'	c #CCE4FC",
")	c #C0E0FC",
"!	c #B0D8FC",
"~	c #BCDCFC",
"{	c #A8C8E4",
"]	c #98C0EC",
"^	c #18A0FC",
"                ",
" .....+@#       ",
" .$$%%&*=-      ",
" .$$%&&;>*-     ",
" +&&,''')*>@!   ",
" +&,''')~*{*=-  ",
" +,''')~~*{;>*  ",
" *')~~#!!;{')*  ",
" *))~##!-;{)~*  ",
" *~~#!!--;]~~*  ",
" ^^^^^^^^^]!!;  ",
"     *****{!-;  ",
"     *~~#!!--;  ",
"     ^^^^^^^^^  ",
"                ",
"                "};
