/* XPM */
static char * tb_compile_xpm[] = {
"16 16 49 1",
" 	c None",
".	c #FF9100",
"+	c #FF9200",
"@	c #FF9101",
"#	c #FF9204",
"$	c #FBAF78",
"%	c #F7C7A4",
"&	c #F3D8BB",
"*	c #FE9937",
"=	c #EBFFF6",
"-	c #F7C6A4",
";	c #EFEDDC",
">	c #EFECDA",
",	c #FE9939",
"'	c #E9E6D4",
")	c #E9FDF4",
"!	c #F7C5A3",
"~	c #F4C29D",
"{	c #E6F9F0",
"]	c #FC9835",
"^	c #DFDBC7",
"/	c #DEF2E8",
"(	c #F4BF9B",
"_	c #EFBB94",
":	c #DAEEE4",
"<	c #E8E3D0",
"[	c #FD9834",
"}	c #DE6E12",
"|	c #DD6E12",
"1	c #DC7A3A",
"2	c #D7D7C8",
"3	c #D6EAE0",
"4	c #DAAC93",
"5	c #DAAD95",
"6	c #D7D6C7",
"7	c #DC7939",
"8	c #DD7839",
"9	c #DAAC94",
"0	c #DAAD94",
"a	c #DD793A",
"b	c #DB936E",
"c	c #D7D7C9",
"d	c #DD7A3A",
"e	c #DB936F",
"f	c #DAAE97",
"g	c #D9C1AC",
"h	c #DD6E13",
"i	c #DD7018",
"j	c #DE6F12",
"     ..++..     ",
"   @........@   ",
"  @..........@  ",
" @..@...#.....@ ",
" ...$%..&*..... ",
"@...$=-.;>*....@",
"....,')!~{>*....",
"+....]^/(_:<[..+",
"}||||12345367||}",
"||||8239032a|||}",
"||||b35|c2d|||||",
" |||ef||ga||||| ",
" }||h|||i|||||| ",
"  ||||||||||||  ",
"   ||||||||||   ",
"     ||jj||     "};
