/* XPM */
static char * tb_device_xpm[] = {
"16 16 2 1",
" 	c None",
".	c #0075B7",
"      ....      ",
"   .   ..   .   ",
"  ..  ....  ..  ",
" .............. ",
"   ....  ....   ",
"   ..      ..   ",
". ...  ..  ... .",
"....  ....  ....",
"....  ....  ....",
". ...  ..  ... .",
"   ..      ..   ",
"   ....  ....   ",
" .............. ",
"  ..  ....  ..  ",
"   .   ..   .   ",
"      ....      "};
