/* XPM */
static const char * tb_debug_xpm[] = {
"16 16 145 2",
"  	c None",
". 	c #093509",
"+ 	c #005301",
"@ 	c #264626",
"# 	c #1E4A1E",
"$ 	c #005700",
"% 	c #005801",
"& 	c #005E00",
"* 	c #006304",
"= 	c #006509",
"- 	c #2F542F",
"; 	c #006708",
"> 	c #09640F",
", 	c #006907",
"' 	c #00690E",
") 	c #006B07",
"! 	c #006B39",
"~ 	c #006D26",
"{ 	c #006C3A",
"] 	c #007200",
"^ 	c #096E2C",
"/ 	c #007136",
"( 	c #007232",
"_ 	c #007E01",
": 	c #007C29",
"< 	c #007D21",
"[ 	c #007E1E",
"} 	c #007E1F",
"| 	c #008201",
"1 	c #038201",
"2 	c #078105",
"3 	c #048304",
"4 	c #008512",
"5 	c #008700",
"6 	c #048701",
"7 	c #00861B",
"8 	c #008808",
"9 	c #008813",
"0 	c #018A01",
"a 	c #008C13",
"b 	c #008D0F",
"c 	c #088E0E",
"d 	c #009400",
"e 	c #009402",
"f 	c #009700",
"g 	c #13900E",
"h 	c #009800",
"i 	c #009900",
"j 	c #009A00",
"k 	c #15930E",
"l 	c #149311",
"m 	c #029B00",
"n 	c #009D00",
"o 	c #039D00",
"p 	c #13970D",
"q 	c #029E00",
"r 	c #13980F",
"s 	c #079E00",
"t 	c #199712",
"u 	c #099F00",
"v 	c #08A004",
"w 	c #0DA101",
"x 	c #0DA300",
"y 	c #6C8078",
"z 	c #17A80B",
"A 	c #25A317",
"B 	c #1BA908",
"C 	c #1FA80B",
"D 	c #20A90F",
"E 	c #2AA522",
"F 	c #22AA09",
"G 	c #24AB11",
"H 	c #26AC0B",
"I 	c #24AD11",
"J 	c #2FA824",
"K 	c #27AD0B",
"L 	c #2AAA20",
"M 	c #2FAA1E",
"N 	c #2EB016",
"O 	c #33AF1E",
"P 	c #3AB51C",
"Q 	c #3BB61D",
"R 	c #3EB42B",
"S 	c #40B91B",
"T 	c #42B920",
"U 	c #45BB1F",
"V 	c #45BB22",
"W 	c #46BB22",
"X 	c #47BC21",
"Y 	c #98989C",
"Z 	c #4DC027",
"` 	c #4FC026",
" .	c #50BE3B",
"..	c #4FBF39",
"+.	c #54BF38",
"@.	c #54C136",
"#.	c #53C327",
"$.	c #54C329",
"%.	c #56C429",
"&.	c #59C52C",
"*.	c #5AC52C",
"=.	c #60C92F",
"-.	c #61C92F",
";.	c #62CA2E",
">.	c #63CA31",
",.	c #63CB2E",
"'.	c #66C843",
").	c #6CC653",
"!.	c #73CA56",
"~.	c #88BF8E",
"{.	c #79D34C",
"].	c #85CC7A",
"^.	c #7CD25D",
"/.	c #7ED359",
"(.	c #88D85E",
"_.	c #89D861",
":.	c #A7C9AA",
"<.	c #96DB78",
"[.	c #95DC77",
"}.	c #99DB7B",
"|.	c #9BDD7A",
"1.	c #9BDD7B",
"2.	c #9CDD7D",
"3.	c #9CDE7D",
"4.	c #9CE077",
"5.	c #A6E381",
"6.	c #A7E583",
"7.	c #D1E1D1",
"8.	c #D7ECCA",
"9.	c #EAE6EC",
"0.	c #DDEDDA",
"a.	c #DDEEDA",
"b.	c #DDEFDA",
"c.	c #DFEFDB",
"d.	c #F9EAFA",
"e.	c #E9F3DC",
"f.	c #F4EEF5",
"g.	c #F5F0F6",
"h.	c #FAF6FC",
"i.	c #FFF7FF",
"j.	c #FFF9FF",
"k.	c #FFFBFF",
"l.	c #FFFCFF",
"m.	c #FFFDFF",
"n.	c #FFFFFF",
"                                ",
"            0 t k |             ",
"        r !.4./.'.@.M 3         ",
"      E 5.(.>.#.X Q N D 6       ",
"    p 6.{.,.=.$.W P C ].I ]     ",
"    )._.;.-.&.Z T F 0.j.8.c >   ",
"  5 [.*.U %.` V H a.l.m.<.a &   ",
"  l ^.A ~.G S K c.n.n.}.q 7 ) Y ",
"  g  .:.d.7.O b.n.n.1.s j : , y ",
"  _ ..L 9.f.i.k.n.2.u m e / ~ y ",
"    J B R g.h.n.3.s m i < ^ > Y ",
"    2 z w +.e.|.o i h 4 { * y   ",
"      1 v n x j f d [ ! ' y Y   ",
"        ] 8 b 9 } ( ~ > y y     ",
"          > ~ ; = ~ > y Y       ",
"              Y y y Y           "};
