/* XPM */
static char * tb_debug_xpm[] = {
"16 16 113 2",
"  	c None",
". 	c #838383",
"+ 	c #4F4F4F",
"@ 	c #4E4E4E",
"# 	c #757575",
"$ 	c #323232",
"% 	c #686868",
"& 	c #5A5A5A",
"* 	c #555555",
"= 	c #424242",
"- 	c #6E6E6E",
"; 	c #5E5E5E",
"> 	c #585858",
", 	c #626262",
"' 	c #6A6A6A",
") 	c #656565",
"! 	c #505050",
"~ 	c #454545",
"{ 	c #383838",
"] 	c #546068",
"^ 	c #424241",
"/ 	c #595959",
"( 	c #626363",
"_ 	c #6B6B6B",
": 	c #666666",
"< 	c #515151",
"[ 	c #454646",
"} 	c #414141",
"| 	c #333333",
"1 	c #5D565F",
"2 	c #B74440",
"3 	c #D15D57",
"4 	c #D9655F",
"5 	c #DD6B64",
"6 	c #CE6C66",
"7 	c #D2544F",
"8 	c #E6413A",
"9 	c #812827",
"0 	c #404F5B",
"a 	c #8D8D8D",
"b 	c #D02826",
"c 	c #F2413A",
"d 	c #FA5950",
"e 	c #FD6358",
"f 	c #FF6C62",
"g 	c #FE685D",
"h 	c #F65048",
"i 	c #F0443D",
"j 	c #E10907",
"k 	c #B23534",
"l 	c #F3ACAC",
"m 	c #E8332F",
"n 	c #FCF6F6",
"o 	c #FCF7F6",
"p 	c #FF7064",
"q 	c #FE6E63",
"r 	c #FDF6F5",
"s 	c #E01714",
"t 	c #D60202",
"u 	c #D75E61",
"v 	c #E7312D",
"w 	c #EE3C34",
"x 	c #FCF3F3",
"y 	c #FCF1F1",
"z 	c #FF6C5F",
"A 	c #FDF3F3",
"B 	c #DF0000",
"C 	c #D60201",
"D 	c #DA8C91",
"E 	c #CB5858",
"F 	c #DF1C1A",
"G 	c #E93933",
"H 	c #F3534C",
"I 	c #F75C54",
"J 	c #F96158",
"K 	c #F75D55",
"L 	c #F14D46",
"M 	c #EC413B",
"N 	c #D90908",
"O 	c #D50000",
"P 	c #AD4A4A",
"Q 	c #EE8F8F",
"R 	c #D90C0A",
"S 	c #E32623",
"T 	c #EF4039",
"U 	c #F1473F",
"V 	c #F4534C",
"W 	c #F25149",
"X 	c #EC3A32",
"Y 	c #E62B27",
"Z 	c #E86E6E",
"` 	c #B3B3B3",
" .	c #D70000",
"..	c #D40000",
"+.	c #F7D2D1",
"@.	c #F6CFCE",
"#.	c #E40D03",
"$.	c #E20D05",
"%.	c #F6D0CF",
"&.	c #F7CFCE",
"*.	c #DD332E",
"=.	c #F6CAC8",
"-.	c #F6CDCC",
";.	c #D80000",
">.	c #F6CECC",
",.	c #F6CCCB",
"'.	c #D00000",
").	c #737373",
"!.	c #E35555",
"~.	c #D50101",
"{.	c #DF3737",
"].	c #D94242",
"^.	c #DA4949",
"                                ",
"            . + @ #             ",
"  $       % + & * = -       $   ",
"  $     ; > , ' ) ! ~ {     $   ",
"  $   ] ^ / ( _ : < [ }     $   ",
"  $ | 1 2 3 4 5 6 7 8 9 0 | $   ",
"  a | b c d e f g h i j k | a   ",
"    l m i n o p q o r s t       ",
"    u v w x y z g y A B C D     ",
"$ $ E F G H I J K L M N O P $ $ ",
"    Q R S T U V W X Y t O Z     ",
"  ` $  ...+.@.#.$.%.&.O O $ `   ",
"  $ $ *...=.-.;. .>.,.O '.$ $   ",
"$ ).    !.O O O O ~.O {.    ).$ ",
"$         ].O O O O ^.        $ ",
"$                             $ "};
