/* XPM */
static const char * tb_find_xpm[] = {
"16 16 27 1",
" 	c None",
".	c #A4A4C4",
"+	c #D0E8FC",
"@	c #A8B4C8",
"#	c #C8CCDC",
"$	c #D4E8FC",
"%	c #F4FCFC",
"&	c #D8ECFC",
"*	c #D8D8E8",
"=	c #94A0B4",
"-	c #E0F0FC",
";	c #C0C4E4",
">	c #848CBC",
",	c #BCBCD8",
"'	c #E4ECF8",
")	c #F0F8FC",
"!	c #E0FCFC",
"~	c #A4B8D4",
"{	c #E8F4FC",
"]	c #DCE8FC",
"^	c #C4D8F4",
"/	c #FCB450",
"(	c #C89458",
"_	c #DC881C",
":	c #988478",
"<	c #FCFCFC",
"[	c #707070",
"   ........     ",
"   .+++++@#.    ",
"   .$$$$$@%#.   ",
"   .&&&&&@%%*.  ",
"   .&&&&&&====. ",
"   .-;.>.;@@@@. ",
"   .;>,',>@###. ",
"   ..,)'!~.{{{. ",
"   .>'']%^>{{{. ",
"   ..,]+%~.))). ",
"   .,>~^~>#))). ",
"   /(#.>.#%%%%. ",
"  /_:%%%%%%%%%. ",
" /_:<<<<<<<<<<. ",
"(_:.<<<<<<<<<<. ",
" [ ............ "};
