/* XPM */
static const char * tb_findnext_xpm[] = {
"16 16 19 1",
" 	c None",
".	c #A4A4C4",
"+	c #848CBC",
"@	c #1D5327",
"#	c #BCBCD8",
"$	c #E4ECF8",
"%	c #A8B4C8",
"&	c #F0F8FC",
"*	c #E0FCFC",
"=	c #A4B8D4",
"-	c #DCE8FC",
";	c #F4FCFC",
">	c #C4D8F4",
",	c #D0E8FC",
"'	c #FCB450",
")	c #C89458",
"!	c #DC881C",
"~	c #988478",
"{	c #707070",
"                ",
"                ",
"                ",
"                ",
"                ",
"      .+.    @  ",
"     +#$#+%  @@ ",
"    .#&$*=.  @@@",
"    +$$-;>+  @@ ",
"    .#-,;=.  @  ",
"    #+=>=+      ",
"   ') .+.       ",
"  '!~           ",
" '!~            ",
")!~             ",
" {              "};
