/* XPM */
static const char * tb_help_xpm[] = {
"16 16 122 2",
"  	c None",
". 	c #414180",
"+ 	c #595C99",
"@ 	c #839AD3",
"# 	c #859BD3",
"$ 	c #8098D2",
"% 	c #7890D0",
"& 	c #788FCC",
"* 	c #788EC3",
"= 	c #7A91C9",
"- 	c #7A93D3",
"; 	c #7A93D1",
"> 	c #7991D3",
", 	c #5D61A0",
"' 	c #7B88C2",
") 	c #6B88C9",
"! 	c #6784C6",
"~ 	c #5B7BC0",
"{ 	c #4F6EB2",
"] 	c #6A88B6",
"^ 	c #778FB7",
"/ 	c #7890BF",
"( 	c #6381C2",
"_ 	c #5E7DC4",
": 	c #5B78BC",
"< 	c #5C77B7",
"[ 	c #2648A8",
"} 	c #1F46A6",
"| 	c #1A40A1",
"1 	c #23489C",
"2 	c #FFFFFF",
"3 	c #516EAD",
"4 	c #3552A1",
"5 	c #27489A",
"6 	c #2B4B9D",
"7 	c #07328F",
"8 	c #124094",
"9 	c #154495",
"0 	c #1A4898",
"a 	c #1B4797",
"b 	c #1B4494",
"c 	c #154596",
"d 	c #0F3F95",
"e 	c #0D4595",
"f 	c #114A9A",
"g 	c #0E4699",
"h 	c #0D479D",
"i 	c #114B9E",
"j 	c #0B4CA1",
"k 	c #08479C",
"l 	c #0D489D",
"m 	c #0E4C9F",
"n 	c #134F9F",
"o 	c #114FA0",
"p 	c #1051A3",
"q 	c #0D4FA5",
"r 	c #084AA1",
"s 	c #08499D",
"t 	c #0E4EA1",
"u 	c #0B4BA2",
"v 	c #07459E",
"w 	c #1958A1",
"x 	c #1859A6",
"y 	c #0C53A8",
"z 	c #0952A7",
"A 	c #0951A8",
"B 	c #0C56A8",
"C 	c #0C54A6",
"D 	c #0B53A7",
"E 	c #0952A8",
"F 	c #0F51A0",
"G 	c #1862B1",
"H 	c #0E5DB3",
"I 	c #0959B1",
"J 	c #0D5AB0",
"K 	c #0B5AAD",
"L 	c #1361AD",
"M 	c #105FAF",
"N 	c #0D5CB0",
"O 	c #0F5AAB",
"P 	c #1F61A8",
"Q 	c #0A64BB",
"R 	c #0963BA",
"S 	c #0A63B9",
"T 	c #0F62B4",
"U 	c #1565B3",
"V 	c #1668B3",
"W 	c #1266B5",
"X 	c #1767B3",
"Y 	c #1165B6",
"Z 	c #1A68B2",
"` 	c #1A6AB7",
" .	c #0A6EC4",
"..	c #0A6DC3",
"+.	c #106AB8",
"@.	c #1769B7",
"#.	c #1A72BE",
"$.	c #1670C1",
"%.	c #1069BC",
"&.	c #1870BC",
"*.	c #0D69C1",
"=.	c #0B74CC",
"-.	c #1071C3",
";.	c #1A72BD",
">.	c #1B74BE",
",.	c #167BCD",
"'.	c #1073C5",
").	c #1774C6",
"!.	c #1678CD",
"~.	c #0C74CE",
"{.	c #0F6FC7",
"].	c #2561AD",
"^.	c #1B7ACB",
"/.	c #1A7ECB",
"(.	c #1683D7",
"_.	c #0D7CD9",
":.	c #107CD4",
"<.	c #137BCE",
"[.	c #1B7BC7",
"}.	c #1680D7",
"|.	c #0C7BD9",
"1.	c #2C57A2",
"                                ",
"    . . . . . . . . . . . .     ",
"  . + @ # $ % & * = - ; > , .   ",
"  . ' ) ! ~ { ] ^ / ( _ : < .   ",
"  . [ } | 1 2 2 2 2 3 4 5 6 .   ",
"  . 7 8 9 2 2 0 a 2 2 b c d .   ",
"  . e f g 2 2 h i 2 2 j k l .   ",
"  . m n o p q r 2 2 s t u v .   ",
"  . w x y z A 2 2 B C D E F .   ",
"  . G H I J K 2 2 L M N O P .   ",
"  . Q R S T U V W X Y Y Z ` .   ",
"  .  ...+.@.#.2 2 $.%.&.$.*..   ",
"  . =.-.;.>.,.2 2 '.).!.~.{..   ",
"  . ].^./.(._.:.<.[.}.|.|.1..   ",
"    . . . . . . . . . . . .     ",
"                                "};
