/* XPM */
static const char * tb_paste_xpm[] = {
"16 16 36 1",
" 	c None",
".	c #848488",
"+	c #646460",
"@	c #949494",
"#	c #808080",
"$	c #707070",
"%	c #C4C4C4",
"&	c #A8A8A8",
"*	c #DCDC84",
"=	c #C8AC28",
"-	c #C0C0C0",
";	c #A0A0A0",
">	c #ECD828",
",	c #BCBC04",
"'	c #F0E454",
")	c #FCE890",
"!	c #FCE47C",
"~	c #FCF0AC",
"{	c #C4D8DC",
"]	c #84C8FC",
"^	c #74C8FC",
"/	c #E8F4FC",
"(	c #E0F0FC",
"_	c #D8ECFC",
":	c #70BCFC",
"<	c #D0E8FC",
"[	c #5CB8FC",
"}	c #84BCF4",
"|	c #D4E8FC",
"1	c #CCE4FC",
"2	c #C0E0FC",
"3	c #BCDCFC",
"4	c #B4DCFC",
"5	c #B0D8FC",
"6	c #A8D4FC",
"7	c #18A0FC",
"                ",
"     .++@       ",
"    #$%&$#      ",
" *=+%-&;@@+=*   ",
" =>*++++++*>=   ",
" ,')''''!))',   ",
" ,'~~~{]]]]^]^  ",
" ,'))!]//((_:<^ ",
" ,'!'']//(__[}: ",
" ,>'>>^__|1112: ",
" ,>>>>^_|11123: ",
" ,>>>>^|111233: ",
" ,>>>>:1233455[ ",
" =,,>>:2234456[ ",
"  =,,,:3345566[ ",
"      777777777 "};
