/* XPM */
const static char *tb_pawn[] = {
"16 16 74 1",
" 	c None",
".	c #E8C59A",
"+	c #DDAE78",
"@	c #B69674",
"#	c #C39C70",
"$	c #F9E2AA",
"%	c #EBC693",
"&	c #936A3E",
"*	c #74593D",
"=	c #946739",
"-	c #B0875A",
";	c #937047",
">	c #5E4020",
",	c #361F07",
"'	c #593A18",
")	c #57391B",
"!	c #452B12",
"~	c #341E09",
"{	c #2D1903",
"]	c #6F6356",
"^	c #2F1C07",
"/	c #301D08",
"(	c #7B6E64",
"_	c #4F3920",
":	c #311D08",
"<	c #33210C",
"[	c #A17E59",
"}	c #301D09",
"|	c #A58665",
"1	c #9E784F",
"2	c #301C07",
"3	c #AF8F6A",
"4	c #483018",
"5	c #554536",
"6	c #B48755",
"7	c #3C250D",
"8	c #B8936A",
"9	c #C59765",
"0	c #A57D53",
"a	c #61411F",
"b	c #402D19",
"c	c #E7BD80",
"d	c #F6D195",
"e	c #E9B97E",
"f	c #C5945C",
"g	c #926638",
"h	c #BBAC9B",
"i	c #53391D",
"j	c #3A250F",
"k	c #412B14",
"l	c #3A240D",
"m	c #331E09",
"n	c #7D7367",
"o	c #A57C4D",
"p	c #CA9A65",
"q	c #C89E70",
"r	c #926F47",
"s	c #52381B",
"t	c #331F09",
"u	c #483725",
"v	c #987450",
"w	c #9A7143",
"x	c #9E774B",
"y	c #89633C",
"z	c #6A4825",
"A	c #492F13",
"B	c #544534",
"C	c #798268",
"D	c #5F552F",
"E	c #65512F",
"F	c #5B4427",
"G	c #47351B",
"H	c #322813",
"I	c #73736A",
"       .+@      ",
"      #$%&*     ",
"      =-;>,     ",
"      ')!~{     ",
"      ]^//(     ",
"       _:<      ",
"       [}|      ",
"       12|      ",
"       345      ",
"       617      ",
"      890ab     ",
"      cdefg     ",
"     hijklmn    ",
"     opqrstu    ",
"     vwxyzAB    ",
"     CDEFGHI    "};
