/* XPM */
static const char * tb_pause_xpm[] = {
"16 16 8 1",
" 	c None",
".	c #E88070",
"+	c #F04C24",
"@	c #E84C20",
"#	c #E44820",
"$	c #F45024",
"%	c #808080",
"&	c #DC441C",
"                ",
"                ",
"  .+++.  .@##.  ",
"  +$$$@  @@@@#  ",
"  +$$+@% #@@@#% ",
"  @$++@% #@@##% ",
"  @+++#% #@###% ",
"  @+@@#% #####% ",
"  @@@@#% #####% ",
"  @@@@#% ####&% ",
"  #@@@#% ###&&% ",
"  #@###% ##&&&% ",
"  #####% &&&&&% ",
"  .###.%  &&&.% ",
"    %%%    %%%  ",
"                "};
