/* XPM */
static const char * tb_print_xpm[] = {
"16 16 45 1",
" 	c None",
".	c #9894D0",
"+	c #E8F4FC",
"@	c #D8ECFC",
"#	c #D0E8FC",
"$	c #F4FCFC",
"%	c #E0F0FC",
"&	c #BCD4F8",
"*	c #C0E0FC",
"=	c #B4DCFC",
"-	c #CCE4FC",
";	c #BCDCFC",
">	c #B0D8FC",
",	c #A8D4FC",
"'	c #A0D0FC",
")	c #C4ECFC",
"!	c #98C0EC",
"~	c #84ACD0",
"{	c #98989C",
"]	c #848488",
"^	c #94A0B4",
"/	c #7C849C",
"(	c #808080",
"_	c #949494",
":	c #A8A8A8",
"<	c #B4B4B8",
"[	c #D4D4D4",
"}	c #CCCCCC",
"|	c #F0F0F4",
"1	c #BCBCC0",
"2	c #8C8894",
"3	c #A0A0A0",
"4	c #B0B0B0",
"5	c #DCDCD8",
"6	c #FCFCFC",
"7	c #E4E0E4",
"8	c #C0C0C4",
"9	c #C4C4C4",
"0	c #E8E8EC",
"a	c #707070",
"b	c #8C8C8C",
"c	c #141414",
"d	c #505050",
"e	c #C0C0C0",
"f	c #ECE8F0",
"     ...        ",
"  ...+@#.       ",
"  .$$%@#&.      ",
"   .%@#*=.      ",
"   .@-*;>.      ",
"    .#;=,'.     ",
"    .)=!~~.{]]  ",
"   ].^//(_:<[}] ",
" ]]|123::4:4}5[]",
"]:6667:48}77[9:]",
"][:|660005}13a_b",
"][[:75}8<3accc]b",
" ]5[:::dcccc_}]e",
"  ]7<<<dd]}09]]]",
"   ]1<]]]f]]]   ",
"    ]]ee]]      "};
