/* XPM */
static const char * tb_quit_xpm[] = {
"16 16 242 2",
"  	c None",
". 	c #A12C26",
"+ 	c #A03732",
"@ 	c #A2403B",
"# 	c #A13F3B",
"$ 	c #A23F3B",
"% 	c #A3403C",
"& 	c #A3413D",
"* 	c #A2413D",
"= 	c #A2413C",
"- 	c #A3433E",
"; 	c #A0332F",
"> 	c #A53C37",
", 	c #CE8A88",
"' 	c #E0B1AF",
") 	c #DCACAB",
"! 	c #DFADAC",
"~ 	c #E1B0AF",
"{ 	c #E3B2B0",
"] 	c #E1AAA8",
"^ 	c #E2AAA8",
"/ 	c #E7B6B5",
"( 	c #EABCBB",
"_ 	c #E9BDBC",
": 	c #E9BFBE",
"< 	c #EDC3C2",
"[ 	c #EBC5C3",
"} 	c #BC9B9B",
"| 	c #B24540",
"1 	c #CD807D",
"2 	c #DCA4A2",
"3 	c #DB9E9C",
"4 	c #DD9B9A",
"5 	c #DD9795",
"6 	c #E4A4A3",
"7 	c #F8E6E5",
"8 	c #FCF0F0",
"9 	c #EEB9B7",
"0 	c #E9A2A0",
"a 	c #ECAAA8",
"b 	c #F0B2B1",
"c 	c #F2BAB8",
"d 	c #EFB4B2",
"e 	c #C86D6A",
"f 	c #B7423C",
"g 	c #D38683",
"h 	c #D27D7B",
"i 	c #D48785",
"j 	c #D99E9C",
"k 	c #DE9492",
"l 	c #FBEFEF",
"m 	c #FFFBFB",
"n 	c #ECB7B6",
"o 	c #E6AFAE",
"p 	c #E7A6A4",
"q 	c #EA918E",
"r 	c #EF9B99",
"s 	c #EC9B98",
"t 	c #CC4F4A",
"u 	c #B43A34",
"v 	c #C86460",
"w 	c #D27774",
"x 	c #D68683",
"y 	c #E6C0BE",
"z 	c #EFDDDC",
"A 	c #E6A4A2",
"B 	c #F9E6E6",
"C 	c #FCEFEE",
"D 	c #F1C1C0",
"E 	c #F4DFDF",
"F 	c #F4DFDE",
"G 	c #EEA9A7",
"H 	c #F1908D",
"I 	c #F08A87",
"J 	c #CB3B31",
"K 	c #B43630",
"L 	c #C6544F",
"M 	c #D37571",
"N 	c #E4B2B1",
"O 	c #FCFDFD",
"P 	c #FAE3E3",
"Q 	c #E79491",
"R 	c #FBE9E9",
"S 	c #FDF6F6",
"T 	c #F3ABA9",
"U 	c #F9C9C8",
"V 	c #FEFCFC",
"W 	c #F8E1E0",
"X 	c #F3938F",
"Y 	c #F1564A",
"Z 	c #CB291A",
"` 	c #B5342D",
" .	c #C2423B",
"..	c #DC8C89",
"+.	c #F6E8E8",
"@.	c #FCEEED",
"#.	c #E78D8B",
"$.	c #DE5E59",
"%.	c #FBE4E3",
"&.	c #FEF5F5",
"*.	c #EF827D",
"=.	c #F07874",
"-.	c #FBCFCE",
";.	c #FFFFFF",
">.	c #F9AFA8",
",.	c #EF2207",
"'.	c #CD2F20",
").	c #B63026",
"!.	c #C23A32",
"~.	c #E4A09D",
"{.	c #F4CDCB",
"].	c #DB4C45",
"^.	c #E15751",
"/.	c #F1A09E",
"(.	c #F5ABA8",
"_.	c #F0716C",
":.	c #F15149",
"<.	c #F99D99",
"[.	c #FDCDC8",
"}.	c #F13621",
"|.	c #CF3527",
"1.	c #B62D22",
"2.	c #C3342B",
"3.	c #E7A19D",
"4.	c #F2BDBA",
"5.	c #DA3C33",
"6.	c #E24E47",
"7.	c #E74B42",
"8.	c #EB4E46",
"9.	c #F0544D",
"0.	c #F1321F",
"a.	c #F77467",
"b.	c #FEECED",
"c.	c #FFDDD9",
"d.	c #F34936",
"e.	c #D03828",
"f.	c #B92B20",
"g.	c #C22214",
"h.	c #E28881",
"i.	c #FEFEFF",
"j.	c #F5CFCD",
"k.	c #DC3A30",
"l.	c #E3392C",
"m.	c #E83A2E",
"n.	c #EB3322",
"o.	c #EE2B0F",
"p.	c #EE1700",
"q.	c #F58473",
"r.	c #FEFFFF",
"s.	c #FFCFCA",
"t.	c #F3452E",
"u.	c #D13E2D",
"v.	c #BB281B",
"w.	c #C11B04",
"x.	c #D65446",
"y.	c #F4CBCC",
"z.	c #FDFAFA",
"A.	c #E98E89",
"B.	c #DD1800",
"C.	c #E31E00",
"D.	c #E91E00",
"E.	c #EB1200",
"F.	c #F05B47",
"G.	c #F9D2D0",
"H.	c #FFF6F6",
"I.	c #FC9E92",
"J.	c #F33F23",
"K.	c #D14232",
"L.	c #BD2618",
"M.	c #C31F07",
"N.	c #CB2107",
"O.	c #E06C5F",
"P.	c #FADFE2",
"Q.	c #FCF3F2",
"R.	c #F0A9A0",
"S.	c #ED786C",
"T.	c #EF7064",
"U.	c #F49589",
"V.	c #FADAD7",
"W.	c #FEF4F5",
"X.	c #FCB0A7",
"Y.	c #F8553D",
"Z.	c #F44C32",
"`.	c #D34434",
" +	c #C02515",
".+	c #C5210A",
"++	c #CA1800",
"@+	c #D32A0F",
"#+	c #E57063",
"$+	c #F8D0D1",
"%+	c #FEFBFE",
"&+	c #FBEDEF",
"*+	c #FBE9EB",
"=+	c #FEFAFD",
"-+	c #FEEAEB",
";+	c #FAA39A",
">+	c #F65741",
",+	c #F74126",
"'+	c #F5543C",
")+	c #D54434",
"!+	c #C32C20",
"~+	c #CA230D",
"{+	c #D11E01",
"]+	c #D41A00",
"^+	c #DA2305",
"/+	c #E95B4B",
"(+	c #F69082",
"_+	c #FCACA4",
":+	c #FFB1A9",
"<+	c #FFA296",
"[+	c #FD7A69",
"}+	c #FA4930",
"|+	c #FA381B",
"1+	c #FE4F35",
"2+	c #FB5B41",
"3+	c #D54637",
"4+	c #AB2E26",
"5+	c #C22919",
"6+	c #CD2610",
"7+	c #CD2710",
"8+	c #D0270F",
"9+	c #D32006",
"0+	c #D81C01",
"a+	c #DE2413",
"b+	c #E12717",
"c+	c #E2230D",
"d+	c #E32307",
"e+	c #E53118",
"f+	c #E6402C",
"g+	c #E94834",
"h+	c #E5503B",
"i+	c #B73C31",
"j+	c #9A2C26",
"k+	c #B2342C",
"l+	c #AD322B",
"m+	c #AC322B",
"n+	c #AB3129",
"o+	c #AB312A",
"p+	c #AB322B",
"q+	c #AA3028",
"r+	c #AC2F28",
"s+	c #A62C25",
"  . + @ # $ $ % & * = * - % ;   ",
"> , ' ) ! ~ { ] ^ / ( _ : < [ } ",
"| 1 2 3 4 5 6 7 8 9 0 a b c d e ",
"f e g h i j k l m n o p q r s t ",
"u v w x y z A B C D E F G H I J ",
"K L M N O P Q R S T U V W X Y Z ",
"`  ...+.@.#.$.%.&.*.=.-.;.>.,.'.",
").!.~.;.{.].^./.(._.:.<.m [.}.|.",
"1.2.3.;.4.5.6.7.8.9.0.a.b.c.d.e.",
"f.g.h.i.j.k.l.m.n.o.p.q.r.s.t.u.",
"v.w.x.y.z.A.B.C.D.E.F.G.H.I.J.K.",
"L.M.N.O.P.Q.R.S.T.U.V.W.X.Y.Z.`.",
" +.+++@+#+$+%+&+*+=+-+;+>+,+'+)+",
"!+~+{+]+^+/+(+_+:+<+[+}+|+1+2+3+",
"4+5+6+7+8+9+0+a+b+c+d+e+f+g+h+i+",
"  j+k+l+l+m+m+n+n+o+p+o+q+r+s+  "};
