/* XPM */
static const char * tb_redo_xpm[] = {
"16 16 7 1",
" 	c None",
".	c #202CB8",
"+	c #6870D0",
"@	c #4C58D0",
"#	c #2C38BC",
"$	c #5468E0",
"%	c #3448D4",
"         .      ",
"         ..     ",
"      +@.#$.    ",
"    @%%$$$$$.   ",
"   @%$$$$$$$$.  ",
"  +#@@$$$$$$.   ",
"  @%@%#..#$.    ",
"  #%%@   ..     ",
"  .%#    .      ",
"  .%.           ",
"  @%.           ",
"  +%.           ",
"   .%+          ",
"   @%#          ",
"    @%#         ",
"     @@@        "};
