/* XPM */
static const char * tb_run_xpm[] = {
"16 16 93 2",
"  	c None",
". 	c #45A93E",
"+ 	c #59BF44",
"@ 	c #54BC40",
"# 	c #4FAF47",
"$ 	c #87E068",
"% 	c #71D057",
"& 	c #46B236",
"* 	c #5FB855",
"= 	c #83DC64",
"- 	c #80D860",
"; 	c #73CB50",
"> 	c #53B639",
", 	c #3BA829",
"' 	c #46B235",
") 	c #5AC045",
"! 	c #79D55B",
"~ 	c #7AD257",
"{ 	c #73CC50",
"] 	c #74CC50",
"^ 	c #33A11F",
"/ 	c #3DAC2E",
"( 	c #75CD51",
"_ 	c #70C94C",
": 	c #63C03C",
"< 	c #61BE3A",
"[ 	c #4AB02C",
"} 	c #2A9D17",
"| 	c #38A526",
"1 	c #4CB235",
"2 	c #73CC4E",
"3 	c #69C342",
"4 	c #64C13E",
"5 	c #61BF3A",
"6 	c #5EBC37",
"7 	c #4CB12B",
"8 	c #45AB2A",
"9 	c #2D9622",
"0 	c #209021",
"a 	c #73CB4F",
"b 	c #72CB4C",
"c 	c #69C443",
"d 	c #63C03D",
"e 	c #5EBD38",
"f 	c #50B52C",
"g 	c #4DB32B",
"h 	c #4DAC2F",
"i 	c #4C9B3E",
"j 	c #317F49",
"k 	c #6C8078",
"l 	c #98989C",
"m 	c #6FC94C",
"n 	c #5DBC38",
"o 	c #51B430",
"p 	c #4BB12A",
"q 	c #47A730",
"r 	c #398D3E",
"s 	c #417B5A",
"t 	c #788280",
"u 	c #64C03C",
"v 	c #5CBA39",
"w 	c #50B332",
"x 	c #4BAD30",
"y 	c #449B3A",
"z 	c #2C853F",
"A 	c #5B7F6C",
"B 	c #848488",
"C 	c #41AA27",
"D 	c #5FBD39",
"E 	c #59B738",
"F 	c #4DAE34",
"G 	c #49A735",
"H 	c #3C913F",
"I 	c #347E4F",
"J 	c #7C8982",
"K 	c #42AA27",
"L 	c #4CAE31",
"M 	c #4BAB33",
"N 	c #3C9738",
"O 	c #25833C",
"P 	c #47825A",
"Q 	c #8C8C8C",
"R 	c #32A11C",
"S 	c #3C9E2E",
"T 	c #2E893C",
"U 	c #37834A",
"V 	c #7D8A80",
"W 	c #2D9A23",
"X 	c #238237",
"Y 	c #417E57",
"Z 	c #8B8C8B",
"` 	c #2E982F",
" .	c #6A8076",
"                                ",
"    .                           ",
"    + @ #                       ",
"    + $ % & *                   ",
"    + = - ; > , '               ",
"    ) ! ~ { ] ] > ^ /           ",
"    + { ( ] ] _ : < [ } |       ",
"    1 ] ] 2 3 4 5 6 7 8 9 0     ",
"    1 a b c d e f g h i j k l   ",
"    1 m c d n o p q r s t l     ",
"    1 u u v w x y z A B l       ",
"    C D E F G H I J l           ",
"    K L M N O P Q l             ",
"    R S T U V Q l               ",
"    W X Y Z l                   ",
"    `  .l                       "};
