/* XPM */
static const char * tb_runtocursor_xpm[] = {
"16 16 4 1",
" 	c None",
".	c #C01828",
"+	c #000080",
"@	c #808080",
"                ",
"                ",
"                ",
"         .. ..  ",
"    +   .@@@ @. ",
"    ++  .@    .@",
"+++++++ .@    .@",
"    ++  .@    .@",
"    +  . @     .",
"        .     . ",
"        .@    .@",
"        .@    .@",
"        .@    .@",
"         .. ..@ ",
"          @@ @  ",
"                "};
