/* XPM */
static const char * tb_replace_xpm[] = {
"16 16 92 1",
" 	c None",
".	c #A4A4C4",
"+	c #D0E8FC",
"@	c #A8B4C8",
"#	c #C8CCDC",
"$	c #D4E8FC",
"%	c #D6EAFC",
"&	c #D5E9FC",
"*	c #B3C1D4",
"=	c #F4FCFC",
"-	c #DFEFFC",
";	c #C0C4E4",
">	c #848CBC",
",	c #BFC3E3",
"'	c #DFE8ED",
")	c #D8D8E8",
"!	c #BCBCD8",
"~	c #E4ECF8",
"{	c #A6B2C6",
"]	c #95A1B5",
"^	c #94A0B4",
"/	c #F0F8FC",
"(	c #E0FCFC",
"_	c #A4B8D4",
":	c #B2BED0",
"<	c #FE967E",
"[	c #DCE8FC",
"}	c #C4D8F4",
"|	c #D5DCE9",
"1	c #484D3C",
"2	c #9A977A",
"3	c #E89481",
"4	c #FE8E74",
"5	c #505834",
"6	c #B7D050",
"7	c #DAF084",
"8	c #98978C",
"9	c #D78B7A",
"0	c #8489C0",
"a	c #72746B",
"b	c #BEDD43",
"c	c #E1FB79",
"d	c #BDD850",
"e	c #2A311F",
"f	c #FCB450",
"g	c #C89458",
"h	c #ACACCA",
"i	c #989F7C",
"j	c #B5CD57",
"k	c #DFFC6E",
"l	c #C6E450",
"m	c #3F4819",
"n	c #DC881C",
"o	c #988479",
"p	c #D6DEEA",
"q	c #C2D1E3",
"r	c #DCE9F8",
"s	c #A4AE7F",
"t	c #BAD749",
"u	c #EDFE7A",
"v	c #C8E066",
"w	c #383E22",
"x	c #FCFCFC",
"y	c #FBFCFC",
"z	c #FAFBFB",
"A	c #9CA775",
"B	c #BFD559",
"C	c #DDFC60",
"D	c #B7CF49",
"E	c #51554B",
"F	c #E6ECF5",
"G	c #988478",
"H	c #FBFBFB",
"I	c #A6A572",
"J	c #C2D256",
"K	c #D7FB5B",
"L	c #B9D34F",
"M	c #495042",
"N	c #E6EBF7",
"O	c #74726F",
"P	c #BEAD3E",
"Q	c #F8DA38",
"R	c #D6D144",
"S	c #586442",
"T	c #E7E8F4",
"U	c #F9F9FA",
"V	c #867634",
"W	c #9F7D23",
"X	c #49452F",
"Y	c #E9E8F4",
"Z	c #A3A3C4",
"`	c #9C9AB9",
"   ........     ",
"   .+++++@#.    ",
"   .$%%%&*=#.   ",
"   .-;.>.,'=).  ",
"   .;>!~!>{]^^. ",
"   ..!/~(_.:@@< ",
"   .>~~[=}>|1234",
"   ..![+=_.56789",
"   .!>_}_0abcde ",
"   fg#.>hijklm. ",
"  fnopqrstuvw/. ",
" fn.xyzABCDEF=. ",
"gnG.xHIJKLMN==. ",
" O .xHPQRSTxxx. ",
"   .xUVWXYxxxx. ",
"   ..Z`........ "};
