/* XPM */
static const char * tb_stop_xpm[] = {
"16 16 21 1",
" 	c None",
".	c #C4404C",
"+	c #B42434",
"@	c #D85860",
"#	c #E898A0",
"$	c #C01828",
"%	c #9C2434",
"&	c #A0384C",
"*	c #E88070",
"=	c #C81C2C",
"-	c #A81824",
";	c #642C30",
">	c #ECB4BC",
",	c #901420",
"'	c #C82834",
")	c #FCECEC",
"!	c #FCFCFC",
"~	c #6C4C48",
"{	c #480C08",
"]	c #906064",
"^	c #5C383C",
"     ..++.      ",
"   @@###$+%&    ",
"  @##*$.=$$-&   ",
" @##@*$$==$--&  ",
" .#.==$$$$=$-;  ",
" .@*>>>>>>>*-,; ",
"'='>)!!!!!)>@,; ",
"'$@>)!!!!!)>-,; ",
"+$'*>>>>>>>*-,; ",
"&-$====$$$$--,~ ",
" ,$$=$$$$$$-,{  ",
" &--$$$$$--,,;  ",
"  ,--+----,,{   ",
"   ]&%,,,,{;    ",
"     ~;;^]      ",
"                "};
