/* XPM */
static const char * tb_saveas_xpm[] = {
"16 16 172 2",
"  	c None",
". 	c #FE967E",
"+ 	c #484D3C",
"@ 	c #9A977A",
"# 	c #E89481",
"$ 	c #FE8E74",
"% 	c #505834",
"& 	c #B7D050",
"* 	c #DAF084",
"= 	c #98978C",
"- 	c #D78B7A",
"; 	c #C1B0FE",
"> 	c #C0AFFF",
", 	c #BAA8FC",
"' 	c #B4A4F8",
") 	c #B19EF6",
"! 	c #AB95F3",
"~ 	c #A18CF0",
"{ 	c #9B85ED",
"] 	c #937EF0",
"^ 	c #8B76E4",
"/ 	c #72746B",
"( 	c #BEDD43",
"_ 	c #E1FB79",
": 	c #BDD850",
"< 	c #2A311F",
"[ 	c #BEADFD",
"} 	c #C3B3FF",
"| 	c #E9E4FE",
"1 	c #F0EDFD",
"2 	c #EFEBFD",
"3 	c #ECE8FC",
"4 	c #EEE9FF",
"5 	c #E4E1F3",
"6 	c #989F7C",
"7 	c #B5CD57",
"8 	c #DFFC6E",
"9 	c #C6E450",
"0 	c #3F4819",
"a 	c #B9A7FB",
"b 	c #BDABFF",
"c 	c #BDABFD",
"d 	c #F7F5FF",
"e 	c #FFFFFF",
"f 	c #A4AE7F",
"g 	c #BAD749",
"h 	c #EDFE7A",
"i 	c #C8E066",
"j 	c #383E22",
"k 	c #B4A2F8",
"l 	c #BAA8FE",
"m 	c #B3A4F6",
"n 	c #F3F1FD",
"o 	c #F2F6F8",
"p 	c #9CA775",
"q 	c #BFD559",
"r 	c #DDFC60",
"s 	c #B7CF49",
"t 	c #474A40",
"u 	c #4931A3",
"v 	c #AD99F5",
"w 	c #B7A4FE",
"x 	c #AC9DEF",
"y 	c #F3F0FC",
"z 	c #F0F4F0",
"A 	c #A6A572",
"B 	c #C2D256",
"C 	c #D7FB5B",
"D 	c #B9D34F",
"E 	c #495042",
"F 	c #432EC0",
"G 	c #7159CB",
"H 	c #A793F1",
"I 	c #B09BFF",
"J 	c #A697E7",
"K 	c #FDFCFE",
"L 	c #C9D4C8",
"M 	c #BEAD3E",
"N 	c #F8DA38",
"O 	c #D6D144",
"P 	c #586442",
"Q 	c #4449BA",
"R 	c #3F33D7",
"S 	c #6851B5",
"T 	c #9F8AEE",
"U 	c #A392EC",
"V 	c #A299E5",
"W 	c #A7A0EE",
"X 	c #5C5FA8",
"Y 	c #867634",
"Z 	c #906900",
"` 	c #49452F",
" .	c #3B38B4",
"..	c #4A4EDE",
"+.	c #5040C8",
"@.	c #5C46B0",
"#.	c #9581EB",
"$.	c #D3C7FF",
"%.	c #B4A0FC",
"&.	c #6B57E1",
"*.	c #5840E8",
"=.	c #4938CE",
"-.	c #503B4B",
";.	c #2A2255",
">.	c #3C2EB4",
",.	c #3A2FD0",
"'.	c #483BCD",
").	c #6A51C7",
"!.	c #523FA5",
"~.	c #8E79E9",
"{.	c #C2B3FF",
"].	c #C2B1FF",
"^.	c #A698EE",
"/.	c #8B7FD3",
"(.	c #8376CE",
"_.	c #8274D6",
":.	c #7F73D9",
"<.	c #7E6ED0",
"[.	c #7760CC",
"}.	c #654CD0",
"|.	c #4D3AC0",
"1.	c #4F3D9F",
"2.	c #8872E6",
"3.	c #B7A6FE",
"4.	c #B49DFF",
"5.	c #756DBF",
"6.	c #404E60",
"7.	c #374953",
"8.	c #667684",
"9.	c #92A2A8",
"0.	c #718093",
"a.	c #4E49A5",
"b.	c #4F3BCD",
"c.	c #4836B8",
"d.	c #4D389A",
"e.	c #826BE3",
"f.	c #B1A0FE",
"g.	c #9F85FF",
"h.	c #706AC6",
"i.	c #3E465C",
"j.	c #3C4658",
"k.	c #B9BFC9",
"l.	c #A4ABC6",
"m.	c #3D38A0",
"n.	c #3825C9",
"o.	c #3D2DB5",
"p.	c #443494",
"q.	c #7D65E1",
"r.	c #AB96FA",
"s.	c #7665F3",
"t.	c #4A42C0",
"u.	c #5C6588",
"v.	c #9098AC",
"w.	c #BEC2D6",
"x.	c #D8DAE2",
"y.	c #8C8FA4",
"z.	c #302B8D",
"A.	c #3421C1",
"B.	c #3C29AD",
"C.	c #41328C",
"D.	c #7A60DA",
"E.	c #6650C2",
"F.	c #4538AA",
"G.	c #6151B1",
"H.	c #6E61B1",
"I.	c #6A5BAB",
"J.	c #6555A7",
"K.	c #544694",
"L.	c #42348C",
"M.	c #433395",
"N.	c #44328E",
"O.	c #433284",
"                            .   ",
"                        + @ # $ ",
"                      % & * = - ",
"; > , ' ) ! ~ { ] ^ / ( _ : <   ",
"[ > } | 1 2 3 4 5 6 7 8 9 0     ",
"a b c d e e e e f g h i j       ",
"k l m n e e o p q r s t u       ",
"v w x y e z A B C D E F G       ",
"H I J K e L M N O P Q R S       ",
"T ; U V W X Y Z `  ...+.@.      ",
"#.$.%.&.*.=.-.;.>.,.'.).!.      ",
"~.{.].^./.(._.:.<.[.}.|.1.      ",
"2.3.4.5.6.7.8.9.0.a.b.c.d.      ",
"e.f.g.h.i.j.k.e l.m.n.o.p.      ",
"q.r.s.t.u.v.w.x.y.z.A.B.C.      ",
"  D.E.F.G.H.I.J.K.L.M.N.O.      "};
