/* XPM */
static const char * tb_saveall_xpm[] = {
"16 16 24 1",
" 	c None",
".	c #7454D4",
"+	c #7458D4",
"@	c #B4A4E0",
"#	c #D4CCE8",
"$	c #BCB4E8",
"%	c #CCC8EC",
"&	c #8068D4",
"*	c #ACA0DC",
"=	c #785CD4",
"-	c #A490E0",
";	c #684CC8",
">	c #D4D4F0",
",	c #C8BCE8",
"'	c #603CC0",
")	c #8C74D8",
"!	c #5434B4",
"~	c #7454CC",
"{	c #9894D0",
"]	c #A4A4C4",
"^	c #B8ACC8",
"/	c #D4CCE0",
"(	c #A89CCC",
"_	c #D8D8E8",
"    ........... ",
"    +@#$$$$$%@& ",
"  ...........*= ",
"  +@#$$$$$%@&*= ",
"...........*=*= ",
"+@#$$$$$%@&*=-= ",
".@$-----$*=*=;= ",
".@>,,,,,#*=-='= ",
";-#,,,,,#*=;='= ",
"'),#####%-='='= ",
"'!~))))~;;='=;- ",
"!'-{{]^&''='=   ",
";.*&{^/);'=;-   ",
"-&(&{/_);'=     ",
" -({*//)~;-     ",
"                "};
