/* XPM */
static const char * tb_settings_xpm[] = {
"16 16 126 2",
"  	c None",
". 	c #9CCCFC",
"+ 	c #5CB8FC",
"@ 	c #E8F4FC",
"# 	c #E5F3FC",
"$ 	c #E3F1FC",
"% 	c #E0F0FC",
"& 	c #DDEFFC",
"* 	c #DAEDFC",
"= 	c #D7ECFC",
"- 	c #D5EAFC",
"; 	c #D2E9FC",
"> 	c #CFE8FC",
", 	c #CCE6FC",
"' 	c #18A0FC",
") 	c #E5F2FC",
"! 	c #E2F1FC",
"~ 	c #DFF0FC",
"{ 	c #DDEEFC",
"] 	c #D4EAFC",
"^ 	c #D1E9FC",
"/ 	c #CFE7FC",
"( 	c #C9E5FC",
"_ 	c #DFEFFC",
": 	c #DCEEFC",
"< 	c #D9EDFC",
"[ 	c #D7EBFC",
"} 	c #D1E8FC",
"| 	c #CEE7FC",
"1 	c #CBE6FC",
"2 	c #C9E4FC",
"3 	c #C6E3FC",
"4 	c #E1F1FC",
"5 	c #DEEFFC",
"6 	c #D9ECFC",
"7 	c #D6EBFC",
"8 	c #D3EAFC",
"9 	c #CBE5FC",
"0 	c #C8E4FC",
"a 	c #C5E3FC",
"b 	c #C3E1FC",
"c 	c #DBEEFC",
"d 	c #D8ECFC",
"e 	c #D3E9FC",
"f 	c #D0E8FC",
"g 	c #8C8B88",
"h 	c #4D4A43",
"i 	c #C5E2FC",
"j 	c #C2E1FC",
"k 	c #BFE0FC",
"l 	c #DBEDFC",
"m 	c #D5EBFC",
"n 	c #A39975",
"o 	c #9E9270",
"p 	c #C7B26F",
"q 	c #69624F",
"r 	c #C4E2FC",
"s 	c #BFDFFC",
"t 	c #BCDEFC",
"u 	c #A89D77",
"v 	c #B2922C",
"w 	c #27251B",
"x 	c #968136",
"y 	c #CBCBCA",
"z 	c #C1E1FC",
"A 	c #BEDFFC",
"B 	c #B9DCFC",
"C 	c #AA9E79",
"D 	c #B29431",
"E 	c #232016",
"F 	c #BB9B35",
"G 	c #918252",
"H 	c #C1E0FC",
"I 	c #BBDEFC",
"J 	c #B8DCFC",
"K 	c #B6DBFC",
"L 	c #A89D79",
"M 	c #B59737",
"N 	c #27241A",
"O 	c #BD9C36",
"P 	c #948451",
"Q 	c #C0E0FC",
"R 	c #BDDFFC",
"S 	c #BBDDFC",
"T 	c #B5DBFC",
"U 	c #B2D9FC",
"V 	c #ACA07E",
"W 	c #B6993F",
"X 	c #26241B",
"Y 	c #BD9D35",
"Z 	c #938351",
"` 	c #BADDFC",
" .	c #B7DCFC",
"..	c #B5DAFC",
"+.	c #AFD8FC",
"@.	c #80734D",
"#.	c #B39639",
"$.	c #201E16",
"%.	c #BE9E37",
"&.	c #938453",
"*.	c #BDDEFC",
"=.	c #B7DBFC",
"-.	c #998C68",
";.	c #ACA695",
">.	c #2B2922",
",.	c #BF9E37",
"'.	c #948554",
").	c #B9DDFC",
"!.	c #B4DAFC",
"~.	c #A8D4FC",
"{.	c #84BCF4",
"].	c #797772",
"^.	c #4E4322",
"/.	c #474641",
"(.	c #D2CEC2",
"_.	c #948659",
":.	c #B3DAFC",
"<.	c #B0D8FC",
"[.	c #C0BCB4",
"}.	c #171615",
"|.	c #42381C",
"1.	c #968A5F",
"2.	c #B3D9FC",
"3.	c #ADD7FC",
"4.	c #C4BFB8",
"5.	c #615F5C",
"    . . . . . . . . . . . . . + ",
"    . @ @ # $ % & * = - ; > , ' ",
"    . @ ) ! ~ { * = ] ^ / , ( ' ",
"    . ) ! _ : < [ ] } | 1 2 3 ' ",
"    . 4 5 : 6 7 8 } | 9 0 a b ' ",
"    . 5 c d 7 e f g h 0 i j k ' ",
"    . l d m ; n o p q r j s t ' ",
"    . d - ; u v w x y z A t B ' ",
"    . ] ^ C D E F G H A I J K ' ",
"    . ^ L M N O P Q R S J T U ' ",
"    . V W X Y Z Q R `  ...U +.' ",
"    @.#.$.%.&.k *.` =.+ ' ' ' ' ",
"  -.;.>.,.'.s t ).=.!.' ~.{.'   ",
"].^./.(._.A t B K :.<.' {.'     ",
"[.}.|.1.A I J K 2.<.3.' '       ",
"  4.5.' ' ' ' ' ' ' ' '         "};
