/* XPM */
static const char * tb_stepover_xpm[] = {
"16 16 5 1",
" 	c None",
".	c #848CBC",
"+	c #000080",
"@	c #C01828",
"#	c #808080",
" .++++++++++.   ",
" +         .+.  ",
"            .+  ",
"    @@ @@    +  ",
"   @### #@   +  ",
"   @#    @#  +  ",
"   @#    @#+++++",
"   @#    @# +++ ",
"  @ #     @  +  ",
"   @     @      ",
"   @#    @#     ",
"   @#    @#     ",
"   @#    @#     ",
"    @@ @@#      ",
"     ## #       ",
"                "};
