/* XPM */
static const char * tb_save_xpm[] = {
"16 16 256 2",
"  	c None",
". 	c #800000",
"+ 	c #008000",
"@ 	c #808000",
"# 	c #000080",
"$ 	c #800080",
"% 	c #008080",
"& 	c #C0C0C0",
"* 	c #C0DCC0",
"= 	c #A6CAF0",
"- 	c #F0F8FC",
"; 	c #080000",
"> 	c #0C0808",
", 	c #100000",
"' 	c #14100C",
") 	c #141414",
"! 	c #280C00",
"~ 	c #383838",
"{ 	c #04185C",
"] 	c #344850",
"^ 	c #480C08",
"/ 	c #482004",
"( 	c #5C383C",
"_ 	c #642C30",
": 	c #7C540C",
"< 	c #505050",
"[ 	c #6C4C48",
"} 	c #646460",
"| 	c #707070",
"1 	c #DCE8FC",
"2 	c #0C3890",
"3 	c #343494",
"4 	c #202CB8",
"5 	c #2C38BC",
"6 	c #0000DC",
"7 	c #0C54B0",
"8 	c #0048DC",
"9 	c #3448D4",
"0 	c #2860D8",
"a 	c #5434B4",
"b 	c #603CC0",
"c 	c #606490",
"d 	c #7078AC",
"e 	c #4C58D0",
"f 	c #4040E4",
"g 	c #5468E0",
"h 	c #684CC8",
"i 	c #7454CC",
"j 	c #7454D4",
"k 	c #7458D4",
"l 	c #7854D4",
"m 	c #785CD4",
"n 	c #6870D0",
"o 	c #7070EC",
"p 	c #288818",
"q 	c #4CB428",
"r 	c #6CA44C",
"s 	c #64C03C",
"t 	c #74CC50",
"u 	c #18A0FC",
"v 	c #2084E8",
"w 	c #2C9CFC",
"x 	c #28A8FC",
"y 	c #7C849C",
"z 	c #6C8CB8",
"A 	c #4080C4",
"B 	c #4490EC",
"C 	c #58A8D8",
"D 	c #40BCFC",
"E 	c #5CB8FC",
"F 	c #6090EC",
"G 	c #7CA4E8",
"H 	c #70BCFC",
"I 	c #5CC8FC",
"J 	c #74C8FC",
"K 	c #901420",
"L 	c #803400",
"M 	c #9C2434",
"N 	c #A81824",
"O 	c #B42434",
"P 	c #A0384C",
"Q 	c #A86C18",
"R 	c #906064",
"S 	c #C00000",
"T 	c #D40000",
"U 	c #C01828",
"V 	c #C81C2C",
"W 	c #C82834",
"X 	c #F00000",
"Y 	c #F8383C",
"Z 	c #DC441C",
"` 	c #FC5000",
" .	c #FC5C00",
"..	c #E44820",
"+.	c #E84C20",
"@.	c #F04C24",
"#.	c #F45024",
"$.	c #FC6C00",
"%.	c #C4404C",
"&.	c #D85860",
"*.	c #8068D4",
"=.	c #8C74D8",
"-.	c #BCBC04",
";.	c #84947C",
">.	c #988478",
",.	c #84AC78",
"'.	c #A48040",
").	c #88E068",
"!.	c #C09404",
"~.	c #DC881C",
"{.	c #DCAC08",
"].	c #C8AC28",
"^.	c #F09408",
"/.	c #E8982C",
"(.	c #F0BC08",
"_.	c #F8A834",
":.	c #C89458",
"<.	c #D0AC74",
"[.	c #E88070",
"}.	c #FCB450",
"|.	c #E0B460",
"1.	c #ECBC7C",
"2.	c #FCBC68",
"3.	c #ECD828",
"4.	c #FCD858",
"5.	c #FCC478",
"6.	c #F0E454",
"7.	c #FCE47C",
"8.	c #B0D8FC",
"9.	c #848488",
"0.	c #8C8C8C",
"a.	c #8C8894",
"b.	c #9C948C",
"c.	c #949494",
"d.	c #98989C",
"e.	c #848CBC",
"f.	c #94A0B4",
"g.	c #AC9C94",
"h.	c #A0A0A0",
"i.	c #A8A8A8",
"j.	c #B0B0B0",
"k.	c #B4B4B8",
"l.	c #9894D0",
"m.	c #84ACD0",
"n.	c #84BCF4",
"o.	c #A89CCC",
"p.	c #A490E0",
"q.	c #A4A4C4",
"r.	c #ACA0DC",
"s.	c #A8B4C8",
"t.	c #A4B8D4",
"u.	c #B8ACC8",
"v.	c #BCBCC0",
"w.	c #BCBCD8",
"x.	c #B4A4E0",
"y.	c #BCB4E8",
"z.	c #A8D894",
"A.	c #B8ECA4",
"B.	c #80C4E4",
"C.	c #84C8FC",
"D.	c #80D4FC",
"E.	c #98C0EC",
"F.	c #9CCCFC",
"G.	c #94D4FC",
"H.	c #BCC4C8",
"I.	c #B8C8D4",
"J.	c #A8C8E4",
"K.	c #A0D0FC",
"L.	c #A8D4FC",
"M.	c #B4CCF4",
"N.	c #B4DCFC",
"O.	c #BCD4F8",
"P.	c #BCDCFC",
"Q.	c #B0F0FC",
"R.	c #C4B090",
"S.	c #C0B4A4",
"T.	c #E898A0",
"U.	c #ECB4BC",
"V.	c #FCBCAC",
"W.	c #C8BCE8",
"X.	c #DCC098",
"Y.	c #DCDC84",
"Z.	c #C8C0BC",
"`.	c #D4C4AC",
" +	c #D0C8BC",
".+	c #E8D49C",
"++	c #FCCC84",
"@+	c #FCC89C",
"#+	c #F0D48C",
"$+	c #FCD888",
"%+	c #FCD498",
"&+	c #E0CCAC",
"*+	c #ECD0AC",
"=+	c #FCD8A8",
"-+	c #FCE890",
";+	c #FCE0B4",
">+	c #FCF0AC",
",+	c #B8D8F8",
"'+	c #C0C0C4",
")+	c #C4C4C4",
"!+	c #C4CCCC",
"~+	c #C8C4C0",
"{+	c #CCC8C4",
"]+	c #CCCCCC",
"^+	c #C8CCDC",
"/+	c #C4D8DC",
"(+	c #DCCCC4",
"_+	c #DCD4CC",
":+	c #D4D4D4",
"<+	c #DCDCD8",
"[+	c #C0C4E4",
"}+	c #CCC8EC",
"|+	c #C4C4F8",
"1+	c #CCD8E4",
"2+	c #C4D8F4",
"3+	c #D4CCE0",
"4+	c #D4CCE8",
"5+	c #D8D8E8",
"6+	c #D4D4F0",
"7+	c #DCE8C4",
"8+	c #C0E0FC",
"9+	c #C4ECFC",
"0+	c #CCE4FC",
"a+	c #D0E8FC",
"b+	c #DCE4E8",
"c+	c #D4E8FC",
"d+	c #D8ECFC",
"e+	c #FCC8C0",
"f+	c #FCD8CC",
"g+	c #FCECC8",
"h+	c #FCE8D8",
"i+	c #FCF4DC",
"j+	c #E4E0E4",
"k+	c #E8E8EC",
"l+	c #E0E0F8",
"m+	c #E4ECF8",
"n+	c #ECE8F0",
"o+	c #E0F0FC",
"p+	c #E0FCFC",
"q+	c #E8F4FC",
"r+	c #FCECEC",
"s+	c #F0ECF4",
"t+	c #F0F0F4",
"u+	c #F4FCFC",
"v+	c #FCF8F0",
"w+	c #FCFCFC",
"x+	c #FFFBF0",
"y+	c #A0A0A4",
"z+	c #808080",
"A+	c #FF0000",
"B+	c #00FF00",
"C+	c #FFFF00",
"D+	c #0000FF",
"E+	c #FF00FF",
"F+	c #00FFFF",
"G+	c #FFFFFF",
"  m n+n+n+n+n+n+n+n+n+n+n+*.    ",
"m j n+p.=.=.=.=.=.=.=.p.j+=.=.  ",
"j j n+s+s+s+s+s+s+s+n+n+j+*.m   ",
"j j n+p.=.=.=.=.=.=.=.p.j+k m   ",
"j j n+s+s+n+n+n+n+n+n+n+j+j m   ",
"j h n+p.=.=.=.=.=.=.=.p.j+j m   ",
"h b j+n+n+s+s+s+s+s+s+s+j+j m   ",
"b b x.j+j+j+j+j+j+j+j+j+y.j m   ",
"b b a b h m =.*.k j j j j j m   ",
"b a b p.w.u.o.u.q.o.a a b j m   ",
"a b h w.*.=.o.q.u.^+j b a j m   ",
"b h l w.*.=.l.u.^+k+j j a j m   ",
"m l *.w.*.=.l.^+k+3+j j a j m   ",
"  =.*.u.*.=.r.k+3+3+j j a j *.  ",
"    *.u.o.r.x.  3+^+m m a *.m   ",
"                                "};
