/* XPM */
static const char * tb_stepinto_xpm[] = {
"16 16 5 1",
" 	c None",
".	c #000080",
"+	c #848CBC",
"@	c #C01828",
"#	c #808080",
".......+        ",
"      +.+       ",
"       +.       ",
"    @@  .  @@   ",
"   @### .   #@  ",
"   @#   .    @# ",
"   @# .....  @# ",
"   @#  ...   @# ",
"  @ #   .     @ ",
"   @         @  ",
"   @#        @# ",
"   @#        @# ",
"   @#        @# ",
"    @@     @@#  ",
"     ##     #   ",
"                "};
