/* XPM */
static char * tb_transfer_xpm[] = {
"16 16 56 1",
" 	c None",
".	c #81C262",
"+	c #7ABC5E",
"@	c #73B65A",
"#	c #398339",
"$	c #72B559",
"%	c #6CB056",
"&	c #71B459",
"*	c #6BB056",
"=	c #63A951",
"-	c #6BAF56",
";	c #63A851",
">	c #5DA34D",
",	c #63A651",
"'	c #559B48",
")	c #63A650",
"!	c #4E9745",
"~	c #468F40",
"{	c #559A48",
"]	c #408B3D",
"^	c #636464",
"/	c #626363",
"(	c #2F2F2F",
"_	c #2A2B2B",
":	c #2C2C2C",
"<	c #282828",
"[	c #2A2A2A",
"}	c #252525",
"|	c #606161",
"1	c #272727",
"2	c #232323",
"3	c #5D5D5D",
"4	c #595A5A",
"5	c #545555",
"6	c #515151",
"7	c #4B4C4C",
"8	c #484848",
"9	c #434443",
"0	c #3F3F3F",
"a	c #3B3B3B",
"b	c #363737",
"c	c #323232",
"d	c #2E2E2E",
"e	c #292929",
"f	c #5E5F5F",
"g	c #5B5C5C",
"h	c #565656",
"i	c #525353",
"j	c #4D4E4E",
"k	c #4A4A4A",
"l	c #444545",
"m	c #414141",
"n	c #3C3D3D",
"o	c #383838",
"p	c #343434",
"q	c #2B2B2B",
"      .+@#      ",
"      +$%#      ",
"      &*=#      ",
"      -;>#      ",
"      ,>'#      ",
"    -)>'!~##    ",
"     >{!~]#     ",
"      !~]#      ",
"       ]#       ",
"^/            (_",
"/^            :<",
"^/            [}",
"/|            12",
"/34567890abcde}2",
"fghijklmnop(q122",
"                "};
